<svg width="14" height="18" viewBox="0 0 14 18" fill="none" xmlns="http://www.w3.org/2000/svg">
<path fill-rule="evenodd" clip-rule="evenodd" d="M1.16666 15.6667H12.8333C13.0543 15.6667 13.2663 15.7545 13.4226 15.9107C13.5789 16.067 13.6667 16.279 13.6667 16.5C13.6667 16.721 13.5789 16.933 13.4226 17.0892C13.2663 17.2455 13.0543 17.3333 12.8333 17.3333H1.16666C0.945648 17.3333 0.733686 17.2455 0.577406 17.0892C0.421126 16.933 0.333328 16.721 0.333328 16.5C0.333328 16.279 0.421126 16.067 0.577406 15.9107C0.733686 15.7545 0.945648 15.6667 1.16666 15.6667ZM0.333328 11.5L8.66666 3.16666L11.1667 5.66666L2.83333 14H0.333328V11.5ZM9.49999 2.33332L11.1667 0.666656L13.6667 3.16666L11.9992 4.83416L9.49999 2.33332Z" fill="#545454"/>
</svg>
