<svg width="23" height="23" viewBox="0 0 23 23" fill="none" xmlns="http://www.w3.org/2000/svg">
<path d="M11.5 22.75C5.28663 22.75 0.25 17.7134 0.25 11.5C0.25 5.28663 5.28663 0.25 11.5 0.25C17.7134 0.25 22.75 5.28663 22.75 11.5C22.75 17.7134 17.7134 22.75 11.5 22.75ZM11.5 9.25C11.2016 9.25 10.9155 9.36853 10.7045 9.5795C10.4935 9.79048 10.375 10.0766 10.375 10.375V16C10.375 16.2984 10.4935 16.5845 10.7045 16.7955C10.9155 17.0065 11.2016 17.125 11.5 17.125C11.7984 17.125 12.0845 17.0065 12.2955 16.7955C12.5065 16.5845 12.625 16.2984 12.625 16V10.375C12.625 10.0766 12.5065 9.79048 12.2955 9.5795C12.0845 9.36853 11.7984 9.25 11.5 9.25ZM11.5 8.125C11.7984 8.125 12.0845 8.00647 12.2955 7.7955C12.5065 7.58452 12.625 7.29837 12.625 7C12.625 6.70163 12.5065 6.41548 12.2955 6.2045C12.0845 5.99353 11.7984 5.875 11.5 5.875C11.2016 5.875 10.9155 5.99353 10.7045 6.2045C10.4935 6.41548 10.375 6.70163 10.375 7C10.375 7.29837 10.4935 7.58452 10.7045 7.7955C10.9155 8.00647 11.2016 8.125 11.5 8.125Z" fill="#7A7A7A"/>
</svg>
