<svg width="27" height="27" viewBox="0 0 27 27" fill="none" xmlns="http://www.w3.org/2000/svg">
<path d="M26.1563 9.28125C26.1553 8.38644 25.7994 7.52857 25.1667 6.89584C24.5339 6.26312 23.6761 5.90723 22.7813 5.90625H20.25V5.0625C20.2493 4.39138 19.9824 3.74796 19.5078 3.27341C19.0333 2.79886 18.3899 2.53195 17.7188 2.53125H9.28125C8.61014 2.53195 7.96671 2.79886 7.49216 3.27341C7.01761 3.74796 6.7507 4.39138 6.75 5.0625V5.90625H4.21875C3.32394 5.90723 2.46607 6.26312 1.83334 6.89584C1.20062 7.52857 0.844727 8.38644 0.84375 9.28125V11.8125H26.1563V9.28125ZM18.5625 5.90625H8.4375V5.0625C8.4375 4.83872 8.5264 4.62411 8.68463 4.46588C8.84286 4.30764 9.05747 4.21875 9.28125 4.21875H17.7188C17.9425 4.21875 18.1571 4.30764 18.3154 4.46588C18.4736 4.62411 18.5625 4.83872 18.5625 5.0625V5.90625Z" fill="#7A7A7A"/>
<path d="M17.7188 13.9219C17.7188 14.2575 17.5854 14.5795 17.3481 14.8168C17.1107 15.0542 16.7888 15.1875 16.4531 15.1875H10.5469C10.2112 15.1875 9.88929 15.0542 9.65194 14.8168C9.41459 14.5795 9.28125 14.2575 9.28125 13.9219V13.7109C9.28125 13.655 9.25903 13.6013 9.21947 13.5618C9.17991 13.5222 9.12626 13.5 9.07031 13.5H0.84375V21.0937C0.84375 21.9889 1.19933 22.8473 1.83226 23.4802C2.4652 24.1132 3.32364 24.4687 4.21875 24.4687H22.7813C23.6764 24.4687 24.5348 24.1132 25.1677 23.4802C25.8007 22.8473 26.1563 21.9889 26.1563 21.0937V13.5H17.9297C17.8737 13.5 17.8201 13.5222 17.7805 13.5618C17.741 13.6013 17.7188 13.655 17.7188 13.7109V13.9219Z" fill="#7A7A7A"/>
</svg>
