<svg width="23" height="23" viewBox="0 0 23 23" fill="none" xmlns="http://www.w3.org/2000/svg">
<path d="M11.5 0.25C5.29 0.25 0.25 5.29 0.25 11.5C0.25 17.71 5.29 22.75 11.5 22.75C17.71 22.75 22.75 17.71 22.75 11.5C22.75 5.29 17.71 0.25 11.5 0.25ZM16 12.625H12.625V16C12.625 16.6187 12.1187 17.125 11.5 17.125C10.8813 17.125 10.375 16.6187 10.375 16V12.625H7C6.38125 12.625 5.875 12.1187 5.875 11.5C5.875 10.8813 6.38125 10.375 7 10.375H10.375V7C10.375 6.38125 10.8813 5.875 11.5 5.875C12.1187 5.875 12.625 6.38125 12.625 7V10.375H16C16.6187 10.375 17.125 10.8813 17.125 11.5C17.125 12.1187 16.6187 12.625 16 12.625Z" fill="#7A7A7A"/>
</svg>
