<svg width="23" height="23" viewBox="0 0 23 23" fill="none" xmlns="http://www.w3.org/2000/svg">
<path d="M22.9685 8.81868C22.8929 8.58737 22.6947 8.42214 22.4539 8.38438L15.2785 7.36472L12.0496 0.873837C11.941 0.656687 11.7192 0.519789 11.4784 0.519789C11.2377 0.519789 11.0158 0.656687 10.9072 0.878558L7.72079 7.38832L0.54542 8.45519C0.304667 8.49295 0.1064 8.65818 0.0308699 8.88949C-0.0446603 9.1208 0.0214286 9.37571 0.196092 9.54093L5.40296 14.5873L4.1992 21.7344C4.15671 21.9751 4.25584 22.2159 4.45411 22.3575C4.56269 22.4377 4.69486 22.4802 4.82704 22.4802C4.93089 22.4802 5.03003 22.4566 5.12444 22.4047L11.5304 19.0105L17.9551 22.3669C18.0496 22.4141 18.1487 22.4377 18.2478 22.4377C18.5971 22.4377 18.8851 22.1498 18.8851 21.8004C18.8851 21.7485 18.8804 21.7013 18.8662 21.6541L17.6247 14.5495L22.7985 9.47485C22.9826 9.3049 23.044 9.04999 22.9685 8.81868ZM16.5012 13.8745C16.3501 14.0208 16.284 14.2333 16.3218 14.441L17.4028 20.6392L11.823 17.7265C11.6389 17.6274 11.4171 17.6321 11.2282 17.7265L5.66732 20.6722L6.71058 14.4646C6.74362 14.2569 6.67753 14.0491 6.52647 13.9028L2.01354 9.52205L8.24006 8.59681C8.44777 8.56376 8.62716 8.4363 8.71685 8.24748L11.4831 2.59687L14.2872 8.23332C14.3816 8.42214 14.561 8.5496 14.7687 8.58264L21 9.47013L16.5012 13.8745Z" fill="#545454"/>
</svg>
