<svg width="24" height="24" viewBox="0 0 24 24" fill="none" xmlns="http://www.w3.org/2000/svg">
<path d="M21.75 6.00918H3.57C3.35286 6.05118 3.12912 6.04467 2.91479 5.99011C2.70047 5.93555 2.50087 5.83429 2.33028 5.69358C2.1597 5.55287 2.02235 5.3762 1.92808 5.17621C1.83381 4.97623 1.78495 4.75788 1.785 4.53681V4.50832L21 3.76014V1.9759C21.0313 1.70969 21.0017 1.43984 20.9134 1.18674C20.8251 0.933641 20.6805 0.703899 20.4904 0.514868C20.3002 0.325837 20.0696 0.182458 19.8159 0.0955583C19.5623 0.00865838 19.2922 -0.0194903 19.026 0.0132379L1.965 2.78555C1.3892 2.99802 0.892261 3.38158 0.540982 3.88469C0.189703 4.3878 0.00091746 4.98633 0 5.59985L0 21.751C0 22.3474 0.237053 22.9195 0.65901 23.3413C1.08097 23.763 1.65326 24 2.25 24H21.75C22.3467 24 22.919 23.763 23.341 23.3413C23.7629 22.9195 24 22.3474 24 21.751V8.24173L24.0015 8.18025C24.0015 7.60365 23.7723 7.05067 23.3645 6.64295C22.9566 6.23523 22.4033 6.00618 21.8265 6.00618L21.747 6.00768L21.75 6.00918ZM19.5 16.5047C18.9031 16.5045 18.3307 16.2673 17.9087 15.8452C17.4867 15.4232 17.2498 14.8508 17.25 14.2542C17.2502 13.6575 17.4875 13.0853 17.9098 12.6635C18.332 12.2418 18.9046 12.0049 19.5015 12.0051C19.7971 12.0052 20.0897 12.0635 20.3628 12.1767C20.6358 12.2898 20.8839 12.4556 21.0928 12.6646C21.3017 12.8736 21.4674 13.1216 21.5805 13.3946C21.6935 13.6676 21.7516 13.9602 21.7515 14.2557C21.7514 14.5511 21.6931 14.8436 21.5799 15.1166C21.4667 15.3895 21.3008 15.6374 21.0917 15.8463C20.8827 16.0551 20.6345 16.2208 20.3614 16.3337C20.0883 16.4467 19.7956 16.5048 19.5 16.5047Z" fill="#7A7A7A"/>
</svg>
