<svg width="22" height="22" viewBox="0 0 22 22" fill="none" xmlns="http://www.w3.org/2000/svg">
<path d="M17.0311 13.6983C15.7483 13.6983 14.5998 14.2835 13.8378 15.2008L8.88101 12.3865C9.03516 11.9528 9.11988 11.4863 9.11988 11.0003C9.11988 10.5143 9.03516 10.0479 8.88101 9.61416L13.8374 6.79919C14.5994 7.71679 15.748 8.30219 17.0309 8.30219C19.3192 8.30219 21.181 6.43978 21.181 4.15047C21.1812 1.86183 19.3194 0 17.0311 0C14.7425 0 12.8805 1.86183 12.8805 4.15037C12.8805 4.63643 12.9652 5.10292 13.1194 5.53679L8.16268 8.35186C7.40077 7.43474 6.25243 6.84973 4.9699 6.84973C2.68098 6.84973 0.818756 8.71156 0.818756 11.0002C0.818756 13.2887 2.68098 15.1506 4.9699 15.1506C6.25243 15.1506 7.40067 14.5656 8.16258 13.6485L13.1194 16.4629C12.9652 16.8968 12.8804 17.3634 12.8804 17.8495C12.8804 20.1381 14.7424 21.9999 17.031 21.9999C19.3193 21.9999 21.1811 20.138 21.1811 17.8495C21.1812 15.5606 19.3194 13.6983 17.0311 13.6983ZM17.0311 1.45236C18.5186 1.45236 19.7288 2.66266 19.7288 4.15037C19.7288 5.63885 18.5186 6.84973 17.0311 6.84973C15.5433 6.84973 14.3329 5.63885 14.3329 4.15037C14.3329 2.66266 15.5433 1.45236 17.0311 1.45236ZM4.97 13.6983C3.4819 13.6983 2.27122 12.4879 2.27122 11.0003C2.27122 9.51249 3.4819 8.30219 4.97 8.30219C6.45751 8.30219 7.66761 9.51249 7.66761 11.0003C7.66761 12.4879 6.45741 13.6983 4.97 13.6983ZM17.0311 20.5476C15.5433 20.5476 14.3329 19.3372 14.3329 17.8496C14.3329 16.3614 15.5433 15.1507 17.0311 15.1507C18.5186 15.1507 19.7288 16.3614 19.7288 17.8496C19.7288 19.3372 18.5186 20.5476 17.0311 20.5476Z" fill="#545454"/>
</svg>
