<svg width="20" height="20" viewBox="0 0 20 20" fill="none" xmlns="http://www.w3.org/2000/svg">
<path d="M17.6484 14.7266H16.1381C16.035 14.7266 15.9383 14.7717 15.8738 14.8512C15.7234 15.0338 15.5623 15.21 15.3926 15.3775C14.6984 16.0724 13.8761 16.6262 12.9713 17.0082C12.0338 17.4042 11.0262 17.6073 10.0086 17.6055C8.97948 17.6055 7.98261 17.4035 7.04589 17.0082C6.14103 16.6262 5.31877 16.0724 4.6246 15.3775C3.92918 14.685 3.37468 13.8642 2.99179 12.9606C2.59433 12.0238 2.39452 11.0291 2.39452 10C2.39452 8.97091 2.59647 7.97618 2.99179 7.03946C3.37421 6.13497 3.92421 5.32071 4.6246 4.62247C5.32499 3.92423 6.13925 3.37422 7.04589 2.9918C7.98261 2.59649 8.97948 2.39454 10.0086 2.39454C11.0377 2.39454 12.0346 2.59434 12.9713 2.9918C13.8779 3.37422 14.6922 3.92423 15.3926 4.62247C15.5623 4.79219 15.7213 4.96837 15.8738 5.14883C15.9383 5.22833 16.0371 5.27344 16.1381 5.27344H17.6484C17.7838 5.27344 17.8676 5.12305 17.7924 5.00919C16.1445 2.44825 13.2613 0.753131 9.98495 0.761725C4.83729 0.774615 0.710146 4.95333 0.761708 10.0945C0.813271 15.1541 4.93398 19.2383 10.0086 19.2383C13.2764 19.2383 16.1467 17.5453 17.7924 14.9908C17.8654 14.877 17.7838 14.7266 17.6484 14.7266ZM19.5584 9.86466L16.5098 7.45841C16.3959 7.36817 16.2305 7.44981 16.2305 7.59376V9.22657H9.48437C9.38984 9.22657 9.31249 9.30391 9.31249 9.39845V10.6016C9.31249 10.6961 9.38984 10.7734 9.48437 10.7734H16.2305V12.4063C16.2305 12.5502 16.398 12.6318 16.5098 12.5416L19.5584 10.1354C19.5789 10.1193 19.5955 10.0987 19.607 10.0753C19.6184 10.0518 19.6243 10.0261 19.6243 10C19.6243 9.97392 19.6184 9.94818 19.607 9.92473C19.5955 9.90128 19.5789 9.88073 19.5584 9.86466Z" fill="#545454"/>
</svg>
