<svg width="23" height="23" viewBox="0 0 23 23" fill="none" xmlns="http://www.w3.org/2000/svg">
<path d="M22.7319 12.4165H21.3784V10.2784C21.3784 8.80612 20.2829 7.58555 18.8644 7.38727L17.8051 3.51401L16.8363 3.77896L13.9282 0L4.70633 7.09644L3.74819 7.35852H3.18806C1.57797 7.35852 0.268097 8.66844 0.268097 10.2785V20.08C0.268052 21.6901 1.57797 23 3.18806 23H18.4585C20.0686 23 21.3785 21.6901 21.3785 20.08V17.942H22.732V12.4165H22.7319ZM17.3215 7.35847H9.36064L16.7675 5.33277L17.3215 7.35847ZM13.6578 2.07629L15.2929 4.20105L8.47267 6.06638L13.6578 2.07629ZM19.8978 20.08C19.8978 20.8737 19.2521 21.5195 18.4584 21.5195H3.18797C2.39429 21.5195 1.74854 20.8738 1.74854 20.08V10.2784C1.74854 9.48476 2.3942 8.83901 3.18797 8.83901H18.4584C19.2521 8.83901 19.8978 9.48467 19.8978 10.2784V12.4165H14.1748V17.942H19.8978V20.08ZM21.2513 16.4614H15.6554V13.897H21.2513V16.4614Z" fill="#545454"/>
</svg>
